<svg width="52" height="52" viewBox="0 0 52 52" fill="none" xmlns="http://www.w3.org/2000/svg">
<circle cx="26" cy="26" r="26" fill="white"/>
<g clip-path="url(#clip0_603_2)">
<path d="M23.8382 28.0531C25.4618 29.7002 27.4263 30.9718 29.5937 31.7787L32.526 29.4454C32.6129 29.3855 32.716 29.3534 32.8215 29.3534C32.9271 29.3534 33.0301 29.3855 33.1171 29.4454L38.5615 32.9531C38.7682 33.0774 38.9432 33.248 39.0726 33.4515C39.202 33.655 39.2823 33.8858 39.3072 34.1257C39.3321 34.3656 39.3009 34.608 39.216 34.8337C39.1312 35.0595 38.995 35.2624 38.8182 35.4265L36.2671 37.9465C35.9017 38.3075 35.4527 38.5724 34.96 38.7176C34.4674 38.8628 33.9465 38.8838 33.4437 38.7787C28.4288 37.7429 23.8064 35.3172 20.1048 31.7787C16.4854 28.205 13.9808 23.6578 12.8948 18.6887C12.7876 18.1937 12.81 17.6795 12.9599 17.1957C13.1097 16.712 13.3821 16.2751 13.7504 15.9276L16.3948 13.3765C16.5585 13.2083 16.7581 13.0793 16.9786 12.9992C17.1992 12.9191 17.435 12.8899 17.6684 12.9139C17.9018 12.9378 18.1268 13.0143 18.3265 13.1375C18.5262 13.2607 18.6954 13.4275 18.8215 13.6254L22.446 18.9998C22.5085 19.0842 22.5422 19.1864 22.5422 19.2915C22.5422 19.3965 22.5085 19.4987 22.446 19.5831L20.0582 22.4531C20.887 24.5772 22.1782 26.4901 23.8382 28.0531Z" fill="#D9B385"/>
</g>
<defs>
<clipPath id="clip0_603_2">
<rect width="28" height="28" fill="white" transform="translate(12 12)"/>
</clipPath>
</defs>
</svg>
